<svg width="41" height="36" viewBox="0 0 41 36" fill="none" xmlns="http://www.w3.org/2000/svg">
<path d="M38.6164 25C35.8279 25 33.1509 24.6 30.6523 23.86C29.8716 23.64 29.0015 23.8 28.3769 24.34L23.4691 28.74C17.1559 25.86 11.9804 21.24 8.76797 15.56L13.6758 11.14C14.3004 10.62 14.4789 9.84 14.2335 9.14C13.4081 6.9 12.9619 4.5 12.9619 2C12.9619 0.9 11.958 0 10.7311 0H2.92321C1.69625 0 0.692383 0.9 0.692383 2C0.692383 20.78 17.669 36 38.6164 36C39.8433 36 40.8472 35.1 40.8472 34V27C40.8472 25.9 39.8433 25 38.6164 25ZM36.3856 18H40.8472C40.8472 8.06 31.857 0 20.7698 0V4C29.4031 4 36.3856 10.26 36.3856 18ZM27.4623 18H31.9239C31.9239 12.48 26.9269 8 20.7698 8V12C24.473 12 27.4623 14.68 27.4623 18Z" fill="#D1BB9D"/>
</svg>
