<svg width="193" height="71" viewBox="0 0 193 71" fill="none" xmlns="http://www.w3.org/2000/svg">
<path fill-rule="evenodd" clip-rule="evenodd" d="M6.88044 0.222045C6.63068 0.305255 5.88003 0.492477 5.21294 0.638547C3.77795 0.952394 3.51002 1.63707 1.60547 9.85543C-1.32173 22.4876 -0.352203 27.6606 5.39004 30.0493C8.31544 31.2662 14.6694 30.7208 17.9526 28.9712C19.4616 28.1671 19.4898 27.8492 17.0798 38.8949C15.8591 44.4894 14.8533 49.43 14.8442 49.8737C14.8288 50.6063 15.2729 50.6687 19.6828 50.552L24.5381 50.4236L29.878 25.551C32.8152 11.871 35.2284 0.525943 35.2402 0.339172C35.2525 0.152401 33.0414 0 30.3263 0H25.3905L24.366 4.86146C23.8025 7.53504 22.6926 12.7755 21.8993 16.5064L20.4575 23.2898L18.4544 24.3073C15.3574 25.8806 11.9624 25.5632 10.4143 23.5553C9.41711 22.2614 9.80265 17.7437 11.6486 9.09931C12.6477 4.42099 13.4651 0.459464 13.4651 0.296662C13.4651 0.000451446 7.74144 -0.0637638 6.88044 0.222045ZM71.1373 0.954656C67.2878 1.3897 57.0807 3.31167 53.654 4.24734C51.6146 4.80403 52.4701 4.84337 62.0551 4.63716C83.8393 4.16774 93.1454 5.92466 98.2837 11.4758L100.194 13.5397L102.274 11.5269C108.788 5.22189 122.648 2.84543 143.075 4.53088C146.05 4.77599 148.559 4.90352 148.649 4.81398C148.973 4.49154 135.275 1.79128 129.718 1.08219C118.777 -0.313394 105.677 0.794115 101.751 3.44689C100.289 4.43547 100.007 4.48973 99.3527 3.91133C96.1493 1.07947 82.5977 -0.340529 71.1373 0.954656ZM52.852 16.7723C39.0239 20.0166 32.7108 47.6532 45.1208 50.618C48.8676 51.5134 53.7839 49.7095 56.2906 46.5199L57.404 45.1035L57.9435 46.7311C59.5547 51.5939 64.5468 52.1755 71.0528 48.2587C73.3865 46.8537 73.4565 46.7537 73.1695 45.2229C72.7885 43.1906 72.8366 43.2173 71.1305 44.096C66.425 46.519 66.1098 44.3682 69.0983 30.2365C72.303 15.0846 72.5796 16.7325 66.8319 16.7325C62.1091 16.7325 62.07 16.7415 61.7817 17.8857C61.497 19.0153 61.4783 19.0203 60.8517 18.1294C59.7259 16.529 56.3387 15.9542 52.852 16.7723ZM145.576 17.6211C144.472 18.3582 141.347 21.319 138.633 24.2001C135.918 27.0813 133.633 29.3746 133.554 29.2959C133.475 29.2172 134.01 26.4201 134.743 23.08C135.476 19.7398 136.075 16.945 136.075 16.8695C136.075 16.794 133.828 16.7325 131.08 16.7325C128.333 16.7325 126.084 16.8853 126.084 17.0717C126.083 17.258 124.55 24.5054 122.678 33.1764C120.805 41.847 119.273 49.326 119.273 49.7959C119.273 51.0513 128.618 51.1119 128.972 49.8583C129.095 49.4228 129.747 46.3196 130.421 42.9618C131.792 36.1263 133.158 33.9172 136.013 33.9172C138.229 33.9172 138.474 34.6702 138.115 40.3891C137.545 49.4667 142.089 53.3178 149.283 49.8547C153.98 47.5935 154.418 47.1092 153.808 44.8521C153.26 42.827 152.864 42.5661 151.969 43.6401C151.306 44.4356 149.57 44.5233 148.264 43.8278C147.394 43.3638 147.36 43.0626 147.653 38.288C148.103 30.9397 147.226 29.5084 141.949 28.9843L139.254 28.7166L142.473 25.4379C146.087 21.7563 146.137 21.7323 146.962 23.2681C148.871 26.8199 154.097 25.3104 154.577 21.0685C155.081 16.6208 149.993 14.6721 145.576 17.6211ZM172.017 16.9912C164.439 19.0212 158.327 29.2995 158.327 40.0137C158.327 50.5751 167.314 54.5909 174.919 47.4285L177.316 45.1705L177.613 46.5177C178.684 51.3751 184.555 52.2243 190.52 48.3849C192.952 46.8188 193.136 46.5823 192.943 45.2727C192.675 43.4538 192.222 43.2033 190.835 44.1086C186.259 47.0938 185.864 44.2231 188.893 30.009C190.316 23.3287 191.48 17.6017 191.479 17.2824C191.475 15.9895 181.799 16.77 181.478 18.0892L181.204 19.2197L180.659 18.2221C179.655 16.3856 176.143 15.8855 172.017 16.9912ZM85.4963 17.5239C84.2952 21.5917 80.6737 40.6654 80.6737 42.9238C80.6737 51.6048 89.5016 53.8967 95.98 46.8975L97.8491 44.8783L98.1266 46.3521C99.0829 51.4284 105.429 52.322 111.404 48.2212C114.719 45.946 115.584 41.3528 112.318 43.3625C106.633 46.8618 106.227 44.8562 109.51 29.4754C110.883 23.0393 112.007 17.532 112.007 17.2376C112.007 16.8501 110.658 16.7375 107.133 16.8302L102.259 16.9586L99.9085 28.0382C97.3332 40.1797 96.4105 42.6194 93.956 43.7853C90.1224 45.606 89.9398 43.04 92.9102 29.058C94.1726 23.1162 95.2053 17.9119 95.2053 17.4936C95.2053 16.3201 85.8433 16.3494 85.4963 17.5239ZM60.0329 21.9019C61.8162 24.6121 56.8577 41.9651 53.8338 43.5976C49.3617 46.0121 47.5003 41.1384 49.5434 32.3651C51.5138 23.9035 57.4522 17.9802 60.0329 21.9019ZM179.864 21.8201C181.116 23.7244 177.145 40.3836 174.91 42.6068C168.736 48.7453 166.099 38.3509 171.037 27.34C173.535 21.7694 177.997 18.9796 179.864 21.8201ZM14.3733 64.4427C14.3733 68.3621 14.4923 69.1911 15.0545 69.1911C15.5563 69.1911 15.7356 68.6701 15.7356 67.2139C15.7356 65.258 15.7552 65.2336 17.5444 64.9487C19.0239 64.7131 19.413 64.4345 19.6823 63.4211C20.3685 60.8339 19.3435 59.6943 16.3301 59.6943H14.3733V64.4427ZM23.4555 64.4653V69.2363L26.0667 69.1006C29.201 68.9378 29.8853 67.7078 26.9749 67.4681C24.2725 67.2451 24.3769 64.6688 27.0884 64.6688C28.4004 64.6688 28.9049 64.4802 28.9049 63.9904C28.9049 63.5007 28.4004 63.3121 27.0884 63.3121C25.4536 63.3121 25.272 63.199 25.272 62.1815C25.272 61.164 25.4536 61.051 27.0884 61.051C28.4004 61.051 28.9049 60.8624 28.9049 60.3726C28.9049 59.8449 28.2995 59.6943 26.1802 59.6943H23.4555V64.4653ZM35.0527 60.7118C31.6609 63.6653 33.5886 69.1911 38.0112 69.1911C40.3158 69.1911 41.1659 68.8126 41.1659 67.786C41.1659 66.7834 41.1069 66.7703 39.6315 67.4396C37.9258 68.2134 36.251 67.5807 35.4218 65.8491C34.0323 62.9476 36.7238 60.2071 39.8199 61.3707C41.0024 61.8152 41.1659 61.7777 41.1659 61.06C41.1659 59.3601 36.8854 59.1159 35.0527 60.7118ZM46.1611 60.3726C46.1611 60.8248 46.6153 61.051 47.5235 61.051H48.8858V65.121C48.8858 68.4372 49.0121 69.1911 49.567 69.1911C50.1219 69.1911 50.2481 68.4372 50.2481 65.121V61.051H51.6105C52.5187 61.051 52.9728 60.8248 52.9728 60.3726C52.9728 59.8299 52.2917 59.6943 49.567 59.6943C46.8423 59.6943 46.1611 59.8299 46.1611 60.3726ZM57.4077 61.0139C54.0336 64.0158 56.2833 69.1911 60.962 69.1911C63.916 69.1911 65.688 67.4107 65.688 64.4427C65.688 60.0248 60.7958 57.9993 57.4077 61.0139ZM70.6832 64.4757C70.6832 69.6293 72.0696 71.724 72.4102 67.0851C72.5378 65.3404 72.6554 65.1925 74.1335 64.9166C75.6062 64.6412 76.5867 63.446 76.5867 61.926C76.5867 60.7873 74.6957 59.6943 72.7267 59.6943H70.6832V64.4757ZM81.358 63.9109C80.2323 66.3095 79.3113 68.4788 79.3113 68.7316C79.3113 69.6533 80.7073 69.1603 81.2104 68.0605C81.6418 67.1172 82.0419 66.9299 83.6254 66.9299C85.2089 66.9299 85.609 67.1172 86.0404 68.0605C86.7047 69.5131 88.1424 69.6361 87.6852 68.2012C87.3214 67.0597 83.9955 60.1384 83.6413 59.7856C83.511 59.6558 82.4833 61.5118 81.358 63.9109ZM92.4806 64.4427C92.4806 68.8894 92.5382 69.1911 93.3888 69.1911C94.1758 69.1911 94.297 68.8894 94.297 66.9299V64.6688H96.5676H98.8382V66.9299C98.8382 68.6385 99.0048 69.1911 99.5193 69.1911C100.082 69.1911 100.2 68.3621 100.2 64.4427C100.2 60.5232 100.082 59.6943 99.5193 59.6943C99.0434 59.6943 98.8382 60.1718 98.8382 61.2771V62.8599H96.5676H94.297V61.2771C94.297 59.9959 94.124 59.6943 93.3888 59.6943C92.5382 59.6943 92.4806 59.9959 92.4806 64.4427ZM110.289 64.3242C110.436 69.6094 112.007 72.0216 112.007 66.9629V64.6688H114.278H116.549V66.9629C116.549 68.9044 116.671 69.234 117.343 69.1061C118.663 68.8542 118.789 59.6943 117.473 59.6943C116.719 59.6943 116.549 59.9869 116.549 61.2771V62.8599H114.278H112.007V61.2771C112.007 59.9869 111.837 59.6943 111.083 59.6943C110.205 59.6943 110.166 59.9272 110.289 64.3242ZM125.936 61.1043C125.57 61.9455 124.624 64.0293 123.835 65.7351C123.045 67.441 122.504 68.9415 122.633 69.0694C123.089 69.5235 124.358 68.7217 124.592 67.8321C124.976 66.3692 128.487 66.5437 129.181 68.0605C129.48 68.7149 130.079 69.1911 130.601 69.1911C131.424 69.1911 131.322 68.7985 129.451 64.7818C126.923 59.3542 126.768 59.1918 125.936 61.1043ZM141.071 64.4427V69.1911H143.013C146.356 69.1911 148.371 66.3864 146.274 64.653C145.788 64.2514 145.718 63.9298 146.047 63.6024C147.784 61.8722 146.04 59.6943 142.917 59.6943H141.071V64.4427ZM153.225 61.0139C148.869 64.8899 153.96 71.2293 159.244 68.5082C160.936 67.6368 161.506 66.5546 161.506 64.2116C161.506 60.023 156.508 58.0929 153.225 61.0139ZM167.863 62.1141C167.863 64.6769 167.141 67.3822 166.456 67.3822C166.231 67.3822 166.047 68.1962 166.047 69.1911C166.047 70.4976 166.236 71 166.728 71C167.106 71 167.409 70.598 167.409 70.0955C167.409 69.277 167.712 69.1911 170.588 69.1911C173.501 69.1911 173.767 69.2693 173.767 70.1286C173.767 70.7775 174.011 71.0199 174.561 70.9163C175.634 70.7142 175.938 67.9416 174.931 67.5567C174.365 67.3406 174.221 66.5152 174.221 63.4898V59.6943H171.042H167.863V62.1141ZM180.124 64.4427V69.1911H182.882C186.193 69.1911 186.834 67.7317 183.64 67.4681C180.941 67.2451 181.048 64.6688 183.757 64.6688C185.069 64.6688 185.574 64.4802 185.574 63.9904C185.574 63.5007 185.069 63.3121 183.757 63.3121C182.122 63.3121 181.941 63.199 181.941 62.1815C181.941 61.164 182.122 61.051 183.757 61.051C185.069 61.051 185.574 60.8624 185.574 60.3726C185.574 59.8449 184.968 59.6943 182.849 59.6943H180.124V64.4427ZM18.0471 61.7781C18.562 62.3963 18.523 62.6003 17.7887 63.1348C16.5135 64.0633 16.1897 63.9163 16.1897 62.4076C16.1897 60.8958 17.0648 60.5996 18.0471 61.7781ZM62.4915 61.4937C63.7834 62.182 64.3279 64.2545 63.6426 65.8767C62.6931 68.1261 60.4216 68.51 58.6288 66.7242C55.9486 64.0556 59.1537 59.7151 62.4915 61.4937ZM74.0518 61.3255C75.5095 61.8826 74.6335 63.7643 72.9165 63.7643C72.6872 63.7643 72.4996 63.1538 72.4996 62.4076C72.4996 61.027 72.7726 60.8366 74.0518 61.3255ZM144.744 61.7781C145.259 62.3963 145.22 62.6003 144.486 63.1348C143.106 64.1392 142.433 63.9009 142.433 62.4076C142.433 60.8606 143.694 60.5173 144.744 61.7781ZM158.781 61.9554C160.746 63.9127 159.312 67.8344 156.631 67.8344C155.208 67.8344 153.332 65.9056 153.332 64.4427C153.332 61.7564 156.931 60.1135 158.781 61.9554ZM172.404 64.2166V67.3822H170.539C168.947 67.3822 168.72 67.2664 168.987 66.5908C169.16 66.1553 169.414 64.7307 169.553 63.4252C169.794 61.1731 169.874 61.051 171.106 61.051H172.404V64.2166ZM84.2611 64.1035C84.7448 65.0292 84.6898 65.121 83.6513 65.121C82.5977 65.121 82.5496 65.0337 83.0278 63.9886C83.3125 63.3655 83.5872 62.9078 83.6376 62.9711C83.6881 63.0344 83.9687 63.5436 84.2611 64.1035ZM127.153 65.0478C126.214 65.2576 126.075 65.0288 126.398 63.8019L126.674 62.7486L127.256 63.8218C127.748 64.7289 127.732 64.9184 127.153 65.0478ZM145.158 66.2032C145.158 67.2501 144.412 67.8344 143.077 67.8344C142.664 67.8344 142.433 67.3473 142.433 66.4777C142.433 65.2716 142.584 65.121 143.795 65.121C144.93 65.121 145.158 65.3024 145.158 66.2032Z" fill="black"/>
</svg>
