<svg width="41" height="41" viewBox="0 0 41 41" fill="none" xmlns="http://www.w3.org/2000/svg">
<path d="M27.4375 2H13.5625C10.4959 2 7.55497 3.21819 5.38658 5.38658C3.21819 7.55497 2 10.4959 2 13.5625L2 27.4375C2 30.5041 3.21819 33.445 5.38658 35.6134C7.55497 37.7818 10.4959 39 13.5625 39H27.4375C30.5041 39 33.445 37.7818 35.6134 35.6134C37.7818 33.445 39 30.5041 39 27.4375V13.5625C39 10.4959 37.7818 7.55497 35.6134 5.38658C33.445 3.21819 30.5041 2 27.4375 2ZM35.5312 27.4375C35.5312 31.9006 31.9006 35.5312 27.4375 35.5312H25.5H20.5H13.5625C9.09938 35.5312 5.46875 31.9006 5.46875 27.4375V13.5625C5.46875 9.09938 9.09938 5.46875 13.5625 5.46875H27.4375C31.9006 5.46875 35.5312 9.09938 35.5312 13.5625V27.4375Z" fill="black"/>
<path d="M20.5 24.5V35.5312H25.5V24.5H30L31 19H25.5V15.5C25.5 15.5 25.5 13.5 27.5 13.5H31V9C31 9 29.5 8.5 26 8.5C22.5 8.5 20 12 20 14.5V19H16V24.5H20.5Z" fill="black"/>
</svg>
