<svg width="40" height="40" viewBox="0 0 40 40" fill="none" xmlns="http://www.w3.org/2000/svg">
<path d="M31.0993 17.9676C30.7609 17.7744 27.8591 15.9957 26.7703 15.3262L26.7671 15.3239L13.5783 7.2796C13.3536 7.13469 13.1017 7.0434 12.8401 7.01212C12.5785 6.98083 12.3136 7.01031 12.064 7.09848C12.0358 7.10916 12.0093 7.11992 11.9819 7.13316C11.9183 7.15506 11.8562 7.18135 11.7959 7.21187C11.5437 7.3711 11.3368 7.59921 11.197 7.87217C11.0572 8.14514 10.9896 8.45288 11.0013 8.763V30.3489C10.9933 30.6379 11.0581 30.9238 11.189 31.1776C11.3199 31.4314 11.5123 31.644 11.7465 31.7935C11.8005 31.8214 11.8561 31.8456 11.913 31.8659C11.9442 31.8811 11.9739 31.8944 12.006 31.9063C12.1601 31.9654 12.3224 31.997 12.4863 32C12.8011 31.9964 13.1095 31.9057 13.3807 31.7368C13.799 31.4804 26.7671 23.5704 26.7671 23.5704L31.094 20.9311C31.3616 20.7895 31.5874 20.5734 31.747 20.3061C31.9067 20.0388 31.9942 19.7304 32 19.4144C31.9868 19.11 31.8962 18.8149 31.7377 18.5603C31.5792 18.3057 31.3587 18.101 31.0993 17.9676ZM13.1537 28.4119V10.5191L21.6989 19.4547L13.1537 28.4119ZM18.5541 25.9541L23.2287 21.0542L24.4658 22.3479C23.1048 23.1782 20.8053 24.581 18.5541 25.9542V25.9541ZM23.2268 17.8532L18.4938 12.9039L24.4707 16.5494L23.2268 17.8532ZM26.3982 21.1694L24.7565 19.4528L26.4007 17.7293C27.1759 18.2049 28.384 18.9451 29.216 19.451L26.3982 21.1694Z" fill="black"/>
<path d="M26.4375 1H12.5625C9.49593 1 6.55497 2.21819 4.38658 4.38658C2.21819 6.55497 1 9.49593 1 12.5625L1 26.4375C1 29.5041 2.21819 32.445 4.38658 34.6134C6.55497 36.7818 9.49593 38 12.5625 38H26.4375C29.5041 38 32.445 36.7818 34.6134 34.6134C36.7818 32.445 38 29.5041 38 26.4375V12.5625C38 9.49593 36.7818 6.55497 34.6134 4.38658C32.445 2.21819 29.5041 1 26.4375 1V1ZM34.5312 26.4375C34.5312 30.9006 30.9006 34.5312 26.4375 34.5312H12.5625C8.09938 34.5312 4.46875 30.9006 4.46875 26.4375V12.5625C4.46875 8.09938 8.09938 4.46875 12.5625 4.46875H26.4375C30.9006 4.46875 34.5312 8.09938 34.5312 12.5625V26.4375Z" fill="black"/>
</svg>
