<svg width="30" height="32" viewBox="0 0 30 32" fill="none" xmlns="http://www.w3.org/2000/svg">
<path d="M20.5652 17.065C22.0358 15.908 23.1092 14.3214 23.6361 12.5259C24.163 10.7304 24.1171 8.8154 23.5049 7.0472C22.8927 5.27901 21.7446 3.74559 20.2203 2.66029C18.6961 1.57498 16.8714 0.99176 15.0002 0.99176C13.1291 0.99176 11.3044 1.57498 9.78013 2.66029C8.25586 3.74559 7.10776 5.27901 6.49556 7.0472C5.88336 8.8154 5.83751 10.7304 6.36438 12.5259C6.89125 14.3214 7.96465 15.908 9.43524 17.065C6.91536 18.0746 4.71667 19.749 3.07358 21.9099C1.43049 24.0707 0.404584 26.637 0.105239 29.335C0.0835711 29.532 0.100914 29.7313 0.156277 29.9216C0.211641 30.1119 0.30394 30.2894 0.427906 30.444C0.678267 30.7562 1.04241 30.9562 1.44024 31C1.83806 31.0438 2.23698 30.9277 2.54923 30.6773C2.86147 30.427 3.06148 30.0628 3.10524 29.665C3.43462 26.7328 4.83277 24.0247 7.03257 22.0582C9.23237 20.0917 12.0796 19.0045 15.0302 19.0045C17.9809 19.0045 20.8281 20.0917 23.0279 22.0582C25.2277 24.0247 26.6259 26.7328 26.9552 29.665C26.996 30.0336 27.1719 30.374 27.4489 30.6205C27.7259 30.8671 28.0844 31.0023 28.4552 31H28.6202C29.0134 30.9548 29.3728 30.7559 29.6201 30.4469C29.8673 30.1378 29.9824 29.7435 29.9402 29.35C29.6395 26.6443 28.608 24.0715 26.9565 21.9073C25.305 19.7431 23.0956 18.0692 20.5652 17.065ZM15.0002 16C13.8136 16 12.6535 15.6481 11.6668 14.9888C10.6801 14.3295 9.91109 13.3925 9.45696 12.2961C9.00284 11.1997 8.88402 9.99335 9.11553 8.82946C9.34704 7.66558 9.91848 6.59648 10.7576 5.75736C11.5967 4.91825 12.6658 4.3468 13.8297 4.11529C14.9936 3.88378 16.2 4.0026 17.2963 4.45673C18.3927 4.91085 19.3298 5.67989 19.9891 6.66658C20.6483 7.65328 21.0002 8.81332 21.0002 10C21.0002 11.5913 20.3681 13.1174 19.2429 14.2426C18.1177 15.3679 16.5915 16 15.0002 16Z" fill="black"/>
</svg>
