<svg width="207" height="106" viewBox="0 0 207 106" fill="none" xmlns="http://www.w3.org/2000/svg">
<path fill-rule="evenodd" clip-rule="evenodd" d="M100.132 0.133123C96.9959 0.402818 92.4352 1.4266 90.4673 2.30273C90.1431 2.44718 89.8233 2.56527 89.7567 2.56527C88.9747 2.56527 82.9712 6.11462 81.327 7.54897C76.5889 11.6823 73.4181 16.9218 72.7314 21.7518C72.5152 23.2726 72.672 23.208 68.8461 23.3532C66.963 23.4246 65.0855 23.5144 64.6739 23.5529C64.2622 23.5911 62.5782 23.6817 60.9316 23.7542C59.285 23.8267 57.6431 23.9111 57.2829 23.9416C56.9227 23.9723 55.828 24.0474 54.8504 24.1084C40.0341 25.0347 40.2083 25.017 40.2901 25.5957C40.3582 26.0771 40.2286 26.0735 45.3076 25.737C50.9356 25.3641 53.784 25.1848 57.3764 24.9776C59.3318 24.8648 62.1946 24.6949 63.7383 24.6004C65.282 24.5058 67.8501 24.4036 69.4453 24.373L72.3455 24.3179L72.4425 26.3895C72.563 28.9676 73.0416 28.6801 68.229 28.9208C65.9649 29.0339 62.4706 29.2132 60.4638 29.3193C58.457 29.4251 55.8889 29.5519 54.7568 29.601C53.6248 29.6502 51.6882 29.7713 50.4532 29.87C49.2183 29.9686 47.2816 30.1027 46.1496 30.1679C45.0175 30.2331 43.6703 30.3203 43.1558 30.3619C42.6412 30.4033 41.0414 30.5284 39.6006 30.6395C35.233 30.9766 32.9682 31.1583 30.7127 31.3525C29.5292 31.4546 27.34 31.6343 25.8477 31.7522C24.3555 31.8701 22.7282 32.0465 22.2316 32.1443C21.7348 32.242 20.8361 32.3221 20.2343 32.3221C19.6326 32.3221 18.7338 32.4032 18.2371 32.5023C17.7405 32.6016 16.2815 32.7805 14.9951 32.9001C11.6753 33.2087 9.7129 33.4093 7.88479 33.6267C7.01004 33.7308 5.16472 33.9417 3.78419 34.0956C1.03231 34.4022 0.315663 34.7085 1.05514 35.2618C1.26134 35.416 1.59739 35.4914 1.80359 35.4294C2.00942 35.3674 2.89353 35.2394 3.76829 35.1448C4.64305 35.0501 6.07447 34.8855 6.94922 34.7791C8.48674 34.5919 12.4631 34.161 15.7436 33.8259C16.6183 33.7365 18.1761 33.5717 19.2052 33.4598C20.2343 33.3477 22.5077 33.1308 24.2573 32.9777C26.0068 32.8247 27.9013 32.6562 28.4673 32.6033C33.4838 32.1341 36.9943 31.8381 40.9104 31.5535C48.8936 30.9734 59.8538 30.2935 63.2705 30.1662C64.3511 30.1259 66.9202 30.031 68.9794 29.9551L72.7235 29.817L73.4332 31.9699C74.0846 33.9457 75.9714 37.7926 76.562 38.3488C76.617 38.4006 76.8486 38.6874 77.0765 38.9863C80.8502 43.9319 86.996 47.9158 93.5829 49.6861C106.539 53.168 121.419 49.2057 128.847 40.2954C129.438 39.5872 130.081 38.8166 130.276 38.5827C130.472 38.3489 130.632 38.1101 130.632 38.0523C130.632 37.9943 130.827 37.6772 131.067 37.3474C132.019 36.0364 133.359 32.9662 133.992 30.6463L134.218 29.8178L137.992 29.9662C140.067 30.0477 142.703 30.1378 143.849 30.166C144.995 30.1945 147.479 30.3144 149.369 30.4327C151.259 30.5512 154.11 30.728 155.705 30.8258C157.3 30.9235 159.742 31.0868 161.131 31.1887C162.52 31.2908 164.878 31.455 166.37 31.5537C171.268 31.8782 174.491 32.1479 175.654 32.3305C176.283 32.4294 177.278 32.5104 177.863 32.5104C178.449 32.5104 179.492 32.5914 180.181 32.6903C180.869 32.7891 182.485 32.9652 183.772 33.0816C189.846 33.6314 195.887 34.2604 200.051 34.777C200.926 34.8855 202.315 35.0467 203.138 35.135C203.961 35.2235 204.892 35.3544 205.207 35.426C205.625 35.5213 205.847 35.4735 206.033 35.248C206.525 34.6506 205.905 34.3956 203.216 34.0898C201.835 33.9327 200.032 33.7253 199.209 33.6293C197.685 33.4511 196.517 33.324 191.537 32.7933C185.405 32.1399 175.875 31.2456 173.293 31.0811C172.625 31.0386 171.151 30.9188 170.019 30.8148C167.171 30.5536 157.129 29.8681 150.746 29.4993C148.997 29.3982 145.376 29.2196 142.7 29.1025C140.025 28.9854 137.088 28.8354 136.174 28.7695L134.512 28.6496L134.547 26.589C134.567 25.4558 134.62 24.4689 134.664 24.396C134.774 24.2177 146.554 24.6908 151.401 25.0682C151.967 25.1123 153.356 25.1963 154.489 25.2546C157.476 25.4089 161.648 25.7046 164.159 25.94C166.47 26.1566 166.744 26.1134 166.744 25.5345C166.744 24.9925 168.232 25.1405 151.775 24.0444C150.283 23.945 147.799 23.8099 146.256 23.7444C144.712 23.6788 143.028 23.595 142.513 23.5579C141.999 23.5208 140.037 23.4302 138.153 23.3564C134.328 23.2065 134.486 23.2713 134.267 21.7518C132.894 12.2116 123.123 3.19694 111.639 0.874971C111.022 0.750105 110.138 0.569117 109.675 0.472502C107.479 0.0146617 103.257 -0.135441 100.132 0.133123ZM106.575 1.06331C110.104 1.46465 113.128 2.04754 113.501 2.39822C113.599 2.49013 113.851 2.56809 114.063 2.57148C114.41 2.57695 115.035 2.77978 116.972 3.51579C123.576 6.02478 132.316 14.5158 132.316 18.423C132.316 18.568 132.383 18.7671 132.464 18.8656C132.645 19.0826 132.943 20.0077 133.279 21.3987C133.619 22.801 133.619 28.323 133.28 29.5912C131.549 36.0658 128.201 40.7195 122.586 44.4555C120.91 45.5702 117.072 47.5771 116.616 47.5771C116.501 47.5771 116.05 47.7334 115.614 47.9246C114.579 48.3781 113.704 48.6587 112.565 48.9034C112.056 49.0128 111.303 49.1816 110.891 49.2785C92.2685 53.6656 72.8384 40.966 73.422 24.7887C73.9343 10.5896 89.8966 -0.833785 106.575 1.06331ZM100.319 2.76434C88.4572 3.86647 78.3339 11.2561 76.0822 20.457C75.9173 21.1303 75.7038 21.9415 75.6077 22.2596C74.4002 26.2545 76.4905 33.8843 79.9085 37.958C94.4746 55.318 126.604 49.8714 131.276 29.25C131.604 27.8045 131.679 23.2052 131.391 22.2596C131.294 21.9415 131.073 21.0879 130.901 20.3628C129.87 16.0244 125.983 10.8725 121.498 7.89965C119.415 6.51841 115.742 4.63695 115.129 4.63695C115.008 4.63695 114.763 4.55822 114.584 4.46217C112.188 3.17378 105.053 2.32458 100.319 2.76434ZM108.474 4.98009C108.877 5.08386 109.735 5.26466 110.38 5.38181C111.612 5.60555 113.127 6.03231 114.072 6.42198C114.381 6.54929 115.138 6.85364 115.756 7.0981C118.758 8.28743 122.048 10.4951 124.191 12.7581C129.859 18.7443 131.187 26.3065 127.774 33.1696C126.785 35.1595 125.178 37.2935 123.334 39.0676C122.729 39.6494 120.012 41.7388 119.86 41.7388C119.796 41.7388 119.504 41.9103 119.211 42.12C117.757 43.1624 113.627 44.8463 110.985 45.4744C110.521 45.5846 109.679 45.7849 109.113 45.9196C107.669 46.2633 99.733 46.2547 98.0247 45.9074C95.9097 45.4776 95.9778 45.4139 100.038 44.0299C106.147 41.9474 106.494 41.7791 106.494 40.8913C106.494 40.2434 105.785 39.7607 103.726 39.0066C102.022 38.3825 101.246 37.7904 102.304 37.922C105.261 38.2896 107.044 38.63 108.926 39.1848C113.343 40.4873 114.237 40.6628 116.549 40.683C117.808 40.6939 118.818 40.6282 118.794 40.537C118.77 40.4457 117.95 40.3511 116.972 40.327C114.919 40.276 113.166 39.9283 110.413 39.027C108.265 38.3233 107.318 38.1083 104.543 37.6934C102.235 37.3483 102.178 37.2933 102.964 36.1528C103.538 35.3196 103.594 35.1136 103.618 33.7551L103.644 32.269L107.923 32.2806C110.276 32.2872 113.187 32.3543 114.391 32.4298C119.189 32.7306 122.024 29.9442 119.749 27.1655C119.178 26.4692 119.166 26.4182 119.412 25.7571C119.737 24.8802 119.699 23.0933 119.324 21.6362C119.162 21.0096 119.03 19.9208 119.03 19.217C119.03 16.1877 118.06 12.8073 116.976 12.0564C115.279 10.8817 113.121 11.8569 111.826 14.3832C111.172 15.6596 111.053 15.6364 109.9 14.0066C109.369 13.2555 108.818 12.4927 108.676 12.3116C108.376 11.9292 107.751 11.8952 106.562 12.1963C105.476 12.4715 105.261 12.2664 105.053 10.7578L104.897 9.6278L103.805 9.63345C102.407 9.64061 102.19 9.90691 102.19 11.6151V12.8711L101.219 12.9869C98.4522 13.3167 96.0953 15.7579 93.5431 20.9378C92.5705 22.9114 92.5523 22.9336 91.9951 22.817C90.5476 22.5144 90.1215 22.4993 89.4356 22.7274C87.5596 23.3504 86.5623 25.8119 86.6927 29.4971C86.7905 32.2599 87.3657 33.3822 89.5203 35.0139C90.158 35.4966 90.2149 35.6162 90.2149 36.4735V37.4071H91.1398H92.0645L92.1222 36.6214C92.2043 35.4991 92.5342 35.5358 93.1155 36.7317C93.6337 37.7975 94.741 38.9488 95.7946 39.517C96.3513 39.8172 96.3897 39.904 96.3897 40.8625C96.3897 41.9473 96.5279 42.1154 97.4207 42.1154C98.0664 42.1154 98.4479 41.6254 98.4479 40.7962C98.4479 40.0914 98.487 40.0477 99.7109 39.3848L100.974 38.7008L103.219 39.4731C107.093 40.8056 107.025 40.909 100.924 42.9859C99.8668 43.3456 98.3091 43.8963 97.462 44.2095C94.4985 45.3053 94.5859 45.3087 91.4285 43.9856C84.8371 41.2237 79.6362 35.8993 78.1041 30.3446C77.9898 29.9302 77.784 29.2098 77.647 28.7437C77.3171 27.6228 77.3153 23.2822 77.6442 22.152C77.7799 21.6859 77.9748 21.0079 78.0776 20.6453C78.2748 19.9491 78.3064 19.8688 79.0652 18.1303C81.6907 12.1155 89.1244 6.80769 97.0784 5.26862C100.185 4.66765 106.627 4.50436 108.474 4.98009ZM104.405 10.4923C104.842 11.682 103.964 13.1082 103.173 12.4941C102.889 12.2745 102.864 10.9684 103.132 10.4629C103.398 9.96304 104.218 9.98187 104.405 10.4923ZM116.655 12.5517C117.68 13.3632 118.16 14.8505 118.202 17.3495C118.224 18.5925 118.327 19.9909 118.432 20.457C119.391 24.7049 119.1 26.3943 117.311 26.9658C117.125 27.0254 116.972 27.144 116.972 27.2295C116.972 27.5534 117.604 27.6105 118.036 27.3256C118.624 26.9376 119.131 27.1173 119.489 27.8408C120.379 29.6347 119.117 31.5625 117.007 31.6333L116.13 31.6629L116.158 30.9096C116.268 27.9812 116.484 25.2277 116.618 25.0576C117.181 24.3378 116.355 22.7199 113.464 18.8797C111.76 16.6165 111.752 16.5913 112.316 15.075C113.17 12.7781 115.344 11.5138 116.655 12.5517ZM107.508 12.6613C108.224 12.938 107.563 13.677 106.6 13.677C105.912 13.677 106.006 14.0184 106.713 14.0889C107.561 14.1731 107.638 14.6187 106.805 14.6187C105.952 14.6187 105.558 14.7801 105.558 15.1305C105.558 15.3545 105.701 15.3869 106.24 15.2852C106.718 15.195 106.97 15.2309 107.08 15.4053C107.363 15.8556 107.253 15.937 106.353 15.9398C105.22 15.9436 104.756 16.2074 105.235 16.5766C105.548 16.8178 105.544 16.8384 105.169 16.9372C104.439 17.1293 104.88 17.5422 105.752 17.4836C106.829 17.4113 107.173 17.5444 106.868 17.9147C106.742 18.0676 106.563 18.1456 106.47 18.088C106.225 17.9358 104.248 18.3799 104.248 18.587C104.248 18.6833 104.791 18.762 105.454 18.762C107.352 18.762 107.34 19.2289 105.437 19.3882C104.908 19.4327 104.372 19.5323 104.248 19.6099C103.816 19.8783 104.461 20.0504 105.496 19.9431C106.312 19.8581 106.494 19.8918 106.494 20.128C106.494 20.5109 106.097 20.6453 104.966 20.6453C103.729 20.6453 103.833 21.0766 105.105 21.2201C106.121 21.3348 105.935 21.4955 104.576 21.6787C103.249 21.8575 103.428 22.2703 104.784 22.1565C105.081 22.1317 105.198 22.2021 105.14 22.3712C105.087 22.5238 104.834 22.6014 104.496 22.5681C104.19 22.5379 103.693 22.6163 103.392 22.7421L102.845 22.9707L103.5 23.0794C104.47 23.2402 104.364 23.7182 103.345 23.7709C102.087 23.8361 102.099 24.402 103.36 24.4092C103.888 24.412 104.041 24.6627 103.66 24.8998C103.542 24.9733 103.001 25.0187 102.457 25.0008C101.914 24.9831 101.416 25.055 101.351 25.161C101.283 25.2708 101.418 25.355 101.665 25.3565C102.944 25.3652 102.568 26.1014 101.253 26.1639C100.496 26.2001 100.445 26.1643 99.6793 25.0737C98.2179 22.9912 97.3155 22.8952 95.3957 24.6173C94.1886 25.7002 94.0648 25.6854 93.4232 24.38C93.0057 23.5308 92.9847 23.6308 94.0898 21.2104C96.3096 16.3485 98.8859 13.8945 102.211 13.4749C104.153 13.2297 106.919 12.747 107.032 12.6334C107.141 12.5236 107.153 12.5242 107.508 12.6613ZM109.21 13.9909C109.52 14.467 109.52 14.5055 109.213 14.7317C108.815 15.0249 108.992 15.3699 109.545 15.3776C109.946 15.3833 109.947 15.3882 109.581 15.5939C109.375 15.7095 109.167 15.8387 109.119 15.8809C108.947 16.0302 109.589 16.3082 110.143 16.3235C110.683 16.3385 110.688 16.347 110.283 16.5434C109.587 16.8815 109.764 17.2553 110.621 17.2553C111.108 17.2553 111.337 17.3269 111.258 17.4548C111.191 17.5646 110.954 17.6399 110.733 17.6222C109.96 17.561 109.675 17.6337 109.675 17.8925C109.675 18.0358 109.846 18.1979 110.054 18.2529C110.263 18.3079 110.41 18.4661 110.382 18.6046C110.347 18.7741 110.605 18.8897 111.172 18.9586C111.967 19.0554 110.471 19.2741 108.178 19.3963C107.561 19.4291 107.564 19.0799 108.209 14.8541C108.436 13.3694 108.673 13.1653 109.21 13.9909ZM106.868 16.6903C107.079 16.8273 106.985 16.8728 106.494 16.8728C106.003 16.8728 105.909 16.8273 106.12 16.6903C106.274 16.59 106.442 16.5078 106.494 16.5078C106.545 16.5078 106.714 16.59 106.868 16.6903ZM114.598 21.6503C116.122 23.9506 116.236 24.2181 115.942 24.7915C115.797 25.0725 115.62 26.5355 115.511 28.3373C115.295 31.9241 115.436 31.665 113.737 31.5953C111.925 31.5207 111.92 31.5139 111.92 29.1829C111.92 26.4948 111.412 25.9426 109.443 26.4929C108.484 26.7611 108.365 27.089 108.365 29.472C108.365 31.8855 108.49 31.7573 106.193 31.6983C104.081 31.6441 103.923 31.409 103.581 27.802L103.465 26.5779L104.415 25.2245C104.937 24.48 105.521 23.5901 105.713 23.247C107.573 19.921 107.468 20.0351 108.585 20.1159L109.394 20.1745L109.452 21.2104C109.521 22.4675 109.625 22.5922 110.383 22.3262C110.985 22.1151 111.387 21.1486 111.081 20.6493C110.81 20.2094 111.321 19.986 112.453 20.0495L113.58 20.1126L114.598 21.6503ZM91.2371 23.453C91.582 23.5888 91.5735 23.6178 91.0983 23.9312C90.4183 24.3796 90.6286 24.6286 91.5608 24.4785C92.1667 24.381 92.3053 24.41 92.2369 24.6194C92.1895 24.7642 91.8836 24.9094 91.5571 24.9418C90.8773 25.0094 90.7158 25.542 91.375 25.542C91.6952 25.542 91.7367 25.5923 91.5621 25.768C91.4386 25.8923 91.3376 26.1042 91.3376 26.2389C91.3376 26.54 92.1195 26.563 92.4103 26.2703C92.6474 26.0317 93.2087 26.1775 93.2087 26.4779C93.2087 26.5847 92.9664 26.672 92.6702 26.672C91.7341 26.672 91.2506 28.271 92.1463 28.4047C92.6777 28.484 92.7542 28.8904 92.2518 28.9646C91.68 29.049 91.6022 29.4223 92.1251 29.5711L92.5538 29.6931L92.0191 30.1363C91.6562 30.437 91.555 30.6237 91.7043 30.7165C91.8254 30.7919 91.8769 30.9781 91.8188 31.1307C91.7607 31.283 91.8007 31.5723 91.9077 31.7735C92.058 32.0561 92.0366 32.1646 91.8134 32.2509C91.4661 32.385 91.4324 32.8172 91.7586 32.9534C91.921 33.0214 91.8653 33.1637 91.5762 33.4193C91.163 33.7845 91.1626 33.7881 91.5442 33.8884C92.0555 34.0231 91.9652 34.8435 91.4311 34.9137C90.8401 34.9915 89.1416 33.8943 88.5234 33.0349C85.9379 29.4424 87.9954 22.1773 91.2371 23.453ZM106.977 23.5303C106.699 23.7344 106.661 23.925 106.769 24.5695C107.004 25.9696 108.026 25.9799 108.232 24.5842C108.382 23.5632 107.705 22.9943 106.977 23.5303ZM109.926 23.4227C109.509 23.6969 109.539 25.4409 109.961 25.4961C110.589 25.578 110.824 25.2641 110.858 24.2979C110.892 23.3538 110.536 23.0204 109.926 23.4227ZM112.996 23.4086C112.227 23.6186 112.711 25.701 113.535 25.7243C113.851 25.7334 114.201 24.7311 114.132 24.0107C114.07 23.3598 113.766 23.1982 112.996 23.4086ZM97.0704 24.6989C96.7079 24.9655 96.6662 25.4776 96.9978 25.5899C97.1804 25.6518 97.1759 25.7372 96.9766 25.9801C96.5517 26.4982 97.215 26.5864 98.0061 26.1166C98.4668 25.843 98.7518 25.7726 98.8792 25.9008C99.1442 26.1675 98.801 26.5363 97.9891 26.8568C97.1377 27.193 97.0723 27.7116 97.9023 27.5446C98.2196 27.4808 98.719 27.2568 99.0119 27.0468C99.3983 26.7698 99.5818 26.7263 99.6812 26.8881C99.835 27.1385 99.0295 27.8582 98.2163 28.1972C97.932 28.3158 97.6995 28.5296 97.6995 28.6723C97.6995 29.1264 98.4174 28.9535 99.3586 28.2729C100.302 27.5905 100.506 27.5018 100.506 27.7732C100.506 28.1286 99.7719 28.7503 99.2214 28.861C98.8988 28.926 98.635 29.0957 98.635 29.2381C98.635 29.5963 99.8327 29.5775 100.132 29.2146C100.397 28.8936 100.804 28.8443 100.969 29.1132C101.091 29.31 99.7654 30.0621 99.2974 30.0621C99.1389 30.0621 99.0093 30.1892 99.0093 30.3446C99.0093 30.5257 99.1938 30.6291 99.5238 30.6331C99.9916 30.6386 100.009 30.6617 99.7109 30.8892C98.9062 31.5041 99.4905 31.7085 100.834 31.2819C101.57 31.048 101.289 31.4979 100.506 31.8075C99.6703 32.1379 99.5158 32.5104 100.214 32.5104C100.466 32.5104 100.723 32.5952 100.787 32.6987C100.85 32.8023 100.813 32.8871 100.704 32.8871C100.416 32.8871 100.462 33.192 100.8 33.5329C101.067 33.8018 101.059 33.8287 100.707 33.8287C100.493 33.8287 100.319 33.9078 100.319 34.0045C100.319 34.2333 101.009 34.4521 101.253 34.3007C101.357 34.2361 101.442 34.2638 101.442 34.3625C101.442 34.642 100.931 34.7714 100.317 34.6476C99.8404 34.5516 99.7577 34.5924 99.7577 34.9241C99.7577 35.138 99.6677 35.3691 99.5579 35.4375C99.4479 35.5059 99.4024 35.6782 99.4565 35.8204C99.5107 35.9626 99.4469 36.1447 99.3148 36.2251C99.1827 36.3055 99.0201 36.5204 98.9535 36.7025C98.8871 36.8848 98.7323 37.012 98.6099 36.985C98.4876 36.9583 98.3254 37.1481 98.2492 37.4071C98.1732 37.666 98.1027 37.8039 98.0924 37.7137C98.0821 37.6233 97.9483 37.654 97.7951 37.7821C97.6418 37.9101 97.5589 38.0842 97.611 38.1687C97.7558 38.4045 97.4332 38.5324 97.1454 38.3533C96.9757 38.2476 96.7817 38.3294 96.5665 38.5968C95.9872 39.3168 94.2401 37.8932 93.2615 35.9036C92.1343 33.6122 93.1081 28.0738 95.0366 25.808C95.6807 25.0514 97.2146 23.984 97.2975 24.2344C97.3411 24.3659 97.2388 24.5748 97.0704 24.6989ZM102.706 27.3783C103.112 28.8046 103.358 31.034 103.134 31.2593C102.869 31.5256 102.645 31.2069 102.357 30.1562C102.243 29.7419 101.991 28.9889 101.796 28.4833C101.381 27.4062 101.364 27.2018 101.666 26.898C102.097 26.4643 102.498 26.6496 102.706 27.3783ZM92.8345 27.4254C92.8345 27.529 92.7503 27.6137 92.6474 27.6137C92.5445 27.6137 92.4603 27.529 92.4603 27.4254C92.4603 27.3218 92.5445 27.237 92.6474 27.237C92.7503 27.237 92.8345 27.3218 92.8345 27.4254ZM102.19 32.1271C102.19 32.3938 101.468 32.7375 101.225 32.5865C101.094 32.5046 101.181 32.365 101.463 32.2078C102.003 31.907 102.19 31.8861 102.19 32.1271ZM102.19 33.3359C102.19 33.3756 101.98 33.4487 101.722 33.4982C101.465 33.5477 101.255 33.5152 101.255 33.4259C101.255 33.3368 101.465 33.2637 101.722 33.2637C101.98 33.2637 102.19 33.2963 102.19 33.3359ZM102.139 35.4492C102.077 35.5117 101.916 35.5185 101.781 35.464C101.632 35.404 101.676 35.3593 101.894 35.3503C102.091 35.3422 102.202 35.3866 102.139 35.4492ZM100.217 37.9591C100.277 38.0555 100.254 38.1785 100.167 38.2326C99.9467 38.3699 99.1964 38.1516 99.1964 37.9501C99.1964 37.7282 100.08 37.7359 100.217 37.9591ZM175.719 46.4C175.387 47.2029 174.874 48.3915 174.579 49.0414C174.284 49.6914 174.042 50.2639 174.042 50.3136C174.042 50.3634 173.831 50.8432 173.574 51.38C173.317 51.9167 173.106 52.419 173.106 52.4959C173.106 52.5729 172.862 53.1714 172.564 53.8261C172.265 54.4807 171.37 56.5418 170.574 58.4063C169.778 60.2709 168.793 62.5591 168.385 63.4914C167.976 64.4236 167.442 65.6681 167.197 66.2569C166.952 66.8458 166.497 67.886 166.187 68.5687C165.876 69.2514 165.622 69.8578 165.622 69.916C165.622 69.9744 165.369 70.5714 165.06 71.2428C164.752 71.9142 164.499 72.4979 164.499 72.5399C164.499 72.5819 164.247 73.1712 163.938 73.8497C163.629 74.5283 163.376 75.1174 163.376 75.1591C163.376 75.2007 163.098 75.8553 162.757 76.6139C162.417 77.3725 161.979 78.3745 161.784 78.8406C159.488 84.3262 156.509 88.2803 153.553 89.7651C151.139 90.978 151.163 90.9821 160.897 91.0371C170.777 91.0931 171.452 90.9823 167.897 89.8877C163.738 88.6074 161.539 85.1302 162.792 81.8157C162.882 81.5779 163.106 80.917 163.289 80.3473C163.473 79.7776 163.82 78.8719 164.061 78.3347C164.302 77.7976 164.499 77.3106 164.499 77.2526C164.499 77.1946 164.791 76.5103 165.149 75.7318L165.798 74.3165L173.803 74.3656L181.807 74.4148L182.686 76.4864C183.75 78.9952 183.936 79.4316 184.811 81.4773C187.532 87.8351 186.842 89.5568 181.293 90.2636C177.03 90.8066 180.291 91.0823 190.976 91.0823C202.331 91.0823 203.366 90.9816 200.752 90.1303C198.987 89.5555 197.372 88.331 196.336 86.7823C195.749 85.9045 193.128 80.7221 193.128 80.4388C193.128 80.3936 192.866 79.7825 192.546 79.0807C192.226 78.379 191.814 77.4234 191.63 76.9573C191.447 76.4911 191.087 75.6436 190.832 75.0739C189.586 72.2951 188.824 70.5451 188.824 70.4646C188.824 70.381 188.631 69.9399 187.443 67.3001C187.173 66.7015 186.953 66.174 186.953 66.1277C186.953 66.0813 186.693 65.4691 186.375 64.7673C185.692 63.259 185.864 63.6522 183.023 57.088C182.082 54.9128 181.192 52.8576 181.045 52.5209C180.598 51.4971 180.289 50.7666 179.467 48.8013C177.795 44.8024 177.882 44.9405 177.056 44.9405H176.322L175.719 46.4ZM11.0044 46.0068C10.6414 46.372 10.9125 46.781 11.5896 46.8901C14.8922 47.4216 16.6849 49.7168 17.0371 53.8649C17.5208 59.5627 17.2455 84.3336 16.6833 85.7148C16.5989 85.922 16.4222 86.3781 16.2909 86.7286C15.7765 88.0999 14.3425 89.2201 12.1416 89.9702C9.06586 91.0183 9.62869 91.0823 21.9183 91.0823C33.0986 91.0823 35.54 90.8934 32.4435 90.2678C28.9228 89.5564 26.9298 88.3264 25.9095 86.2354L25.3799 85.1498V76.0156V66.8814L27.3164 66.8275C33.6362 66.6516 36.1888 68.4359 37.6329 74.0381L38.1183 75.9214H38.7659H39.4135L39.4621 67.2332L39.5108 58.5452L39.0192 58.4506C38.4802 58.3468 37.823 58.8471 37.823 59.3612C37.823 60.6447 36.1177 63.285 34.6642 64.2517C33.2131 65.2169 26.8709 66.281 25.5682 65.7779C25.0789 65.5888 25.2383 51.8501 25.7454 50.5029C26.8812 47.4858 30.6764 46.2705 36.139 47.1747C41.0257 47.9836 44.5799 51.2069 46.4473 56.523C47.02 58.1538 46.995 58.1238 47.7883 58.1238H48.5398L48.4021 56.8526C48.3263 56.1535 48.1996 54.861 48.1206 53.9805C47.7646 50.0123 47.5215 47.6067 47.3976 46.8238L47.2637 45.9763L29.1967 45.9283C19.26 45.9019 11.0734 45.9371 11.0044 46.0068ZM174.745 58.0423C175.194 59.0712 175.719 60.3049 175.912 60.7841C176.253 61.6299 176.599 62.4233 177.525 64.4852C177.771 65.0319 177.971 65.5476 177.971 65.6312C177.971 65.7148 178.25 66.3693 178.591 67.0857C181.789 73.8085 182.275 73.19 173.805 73.1765C165.476 73.1633 166.078 73.3697 167.163 70.8999C167.634 69.8292 168.838 67.0038 169.84 64.6214C170.841 62.2389 171.902 59.7578 172.196 59.1079C172.491 58.458 172.732 57.8965 172.732 57.8606C172.732 55.852 173.834 55.9516 174.745 58.0423ZM55.5053 63.4533C52.974 63.8859 51.4848 64.4487 49.6112 65.6808C41.2545 71.1754 41.3183 85.8331 49.7182 90.2536C50.7152 90.7783 51.382 91.0296 53.5406 91.6938C56.5352 92.6156 62.3647 91.6181 65.5144 89.6453C68.8777 87.5384 70.3131 85.9781 69.6584 85.1402L69.31 84.6946L68.2083 85.7293C66.9306 86.9292 64.8765 88.3336 63.7636 88.7681C63.3381 88.9344 62.9041 89.1357 62.7992 89.2157C62.3389 89.567 60.1002 89.7951 58.9237 89.6107C54.4311 88.9067 51.4593 84.4581 51.0235 77.7846C50.8703 75.4357 49.8982 75.6502 60.9486 75.5935L70.4744 75.5448L70.4194 74.6031C69.9815 67.1081 63.3085 62.1194 55.5053 63.4533ZM89.1637 63.4908C87.5725 63.9963 86.3531 65.1594 85.1615 67.3085C84.4879 68.5235 84.3272 68.2449 84.2679 65.7616L84.2151 63.5424L83.0516 63.6494C82.4119 63.7083 81.2147 63.837 80.3914 63.9355C79.5681 64.0341 77.7999 64.2138 76.462 64.3351C73.5371 64.5999 71.6624 65.4689 74.0159 65.4689C76.7307 65.4689 77.1701 67.3761 77.0746 78.7464C76.991 88.6877 76.9034 89.0946 74.6468 90.0329C72.167 91.0639 72.2774 91.0823 80.9573 91.0823C87.9937 91.0823 88.747 91.0531 88.6445 90.7844C88.582 90.6205 88.5309 90.451 88.5309 90.4077C88.5309 90.3644 88.3193 90.329 88.0605 90.329C87.8019 90.329 87.4439 90.2542 87.2652 90.1627C87.0865 90.0712 86.7007 89.8828 86.4075 89.7442C84.3968 88.7933 84.2269 87.9648 84.2286 79.1107L84.2301 71.9664L85.4446 69.7064C88.7573 63.543 92.9125 62.7124 91.1649 68.563C90.1262 72.04 91.0219 74.1323 93.5491 74.1323C95.7441 74.1323 96.7639 72.8226 96.7639 70.0038C96.7639 68.3182 96.6887 67.9869 95.9572 66.4477C94.7425 63.8912 91.8572 62.6354 89.1637 63.4908ZM117.066 63.4554C114.206 63.9212 112.537 64.8302 110.167 67.2127C108.483 68.9047 108.422 68.8625 108.422 66.0038L108.422 63.6797L107.411 63.7006C106.855 63.7121 105.642 63.814 104.716 63.9266C102.401 64.2087 99.0407 64.5507 98.3134 64.5784C97.2379 64.6197 97.3928 65.2788 98.5415 65.5489C101.163 66.1657 101.255 66.578 101.254 77.7454C101.252 88.9061 101.256 88.885 99.0705 89.9357C98.5737 90.1746 98.046 90.4303 97.8978 90.5041C96.8623 91.0198 97.5977 91.0823 104.701 91.0823C108.671 91.0823 111.983 91.0823 112.06 91.0823C112.586 91.0823 112.076 90.4371 111.359 90.1938C108.617 89.2641 108.315 88.0085 108.403 77.8886L108.459 71.3807L109.736 69.8395C113.619 65.154 117.072 64.0573 119.369 66.7795C120.555 68.186 120.76 70.1774 120.675 79.4998C120.589 88.9884 120.493 89.3681 117.978 90.1751C115.534 90.9592 116.401 91.0823 124.365 91.0823C131.668 91.0823 132.407 91.0213 131.369 90.5041C131.221 90.4303 130.704 90.1802 130.22 89.9482C128.001 88.8837 127.967 88.7253 127.868 79.167L127.787 71.301L128.869 69.971C133.429 64.3604 137.835 63.7855 139.555 68.5764C140.055 69.9672 140.074 87.025 139.578 88.0825C139.186 88.9169 138.156 89.9523 137.717 89.9523C137.537 89.9523 137.338 90.0371 137.274 90.1407C137.21 90.2442 136.953 90.329 136.702 90.329C136.37 90.329 136.245 90.4318 136.245 90.7057C136.245 91.0759 136.37 91.0823 143.651 91.0823C150.939 91.0823 151.682 91.0209 150.641 90.5047C150.493 90.4311 149.905 90.1484 149.335 89.8764C148.29 89.3781 147.844 88.8585 147.416 87.6369C147.279 87.2456 147.164 84.1829 147.089 78.9348C146.947 69.0467 146.77 68.1709 144.438 65.8231C142.257 63.6283 137.087 62.5499 134.704 63.7927C134.525 63.8859 134.296 63.9622 134.194 63.9622C133.992 63.9622 131.962 64.8984 131.661 65.1304C130.514 66.0134 128.08 68.4146 127.767 68.9732C127.544 69.3685 127.319 69.1482 126.715 67.943C124.994 64.5114 121.256 62.7729 117.066 63.4554ZM58.4332 64.4202C61.5822 65.3822 62.8738 67.4846 63.2561 72.2706C63.4701 74.9513 64.1221 74.7031 57.0084 74.6488L51.0269 74.6031L51.0761 73.6614C51.3356 68.6796 53.2854 65.2824 56.3624 64.4496C57.6301 64.1067 57.4165 64.1097 58.4332 64.4202ZM0.0596894 105.443L0.119567 105.867L23.6959 105.911C47.0288 105.955 159.409 106.208 159.175 105.595C159.07 105.321 45.4159 105.019 23.7824 105.019H0L0.0596894 105.443ZM159.32 105.321C159.087 105.934 159.971 105.955 183.304 105.911L206.88 105.867L206.94 105.443L207 105.019H183.218C161.584 105.019 159.425 105.046 159.32 105.321Z" fill="black"/>
</svg>
