<svg width="28" height="42" viewBox="0 0 28 42" fill="none" xmlns="http://www.w3.org/2000/svg">
<path d="M14.9394 41.6399C14.662 41.8746 14.3348 42 14 42C13.6652 42 13.338 41.8746 13.0606 41.6399C12.5574 41.2199 0 31.1407 0 16.2738C0 11.9577 1.06203 8.05193 3.5 5C5.93797 1.94807 10.5522 0 14 0C17.4478 0 22.062 1.94807 24.5 5C26.938 8.05193 28 11.9577 28 16.2738C28 31.3926 15.4258 41.2409 14.9394 41.6399ZM14 3.5C11.4433 3.50555 7.80786 4.73687 6 7C4.19214 9.26313 3.50443 13.0732 3.5 16.2738C3.5 26.773 11.4168 34.6894 14 37.2722C16.6 34.7314 24.5 26.773 24.5 16.2738C24.4956 13.0732 23.8079 9.26313 22 7C20.1921 4.73687 16.5567 3.50555 14 3.5Z" fill="#D1BB9D"/>
<path d="M14 8C16.1097 8.10046 17.516 9.13115 18.5 11C19.4595 12.8223 19.4178 14.4301 18.5 16.2738C17.5364 18.2095 16.1597 19.3941 14 19.5C11.679 19.6138 10.0442 18.3498 9 16.2738C8.07453 14.4339 8.03657 12.8203 9 11C10.0652 8.98738 11.7254 7.89169 14 8Z" fill="#D1BB9D"/>
</svg>
