<svg width="250" height="128" viewBox="0 0 250 128" fill="none" xmlns="http://www.w3.org/2000/svg">
<path fill-rule="evenodd" clip-rule="evenodd" d="M120.932 0.160753C117.145 0.486422 111.637 1.72269 109.26 2.78066C108.868 2.95509 108.482 3.09769 108.402 3.09769C107.457 3.09769 100.207 7.38369 98.221 9.11574C92.4987 14.107 88.6692 20.4339 87.8398 26.2663C87.5788 28.1028 87.7682 28.0248 83.1475 28.2001C80.8732 28.2863 78.6057 28.3948 78.1085 28.4412C77.6114 28.4873 75.5775 28.5967 73.5889 28.6843C71.6002 28.7719 69.6172 28.8737 69.1822 28.9106C68.7472 28.9477 67.4252 29.0384 66.2444 29.1121C48.3504 30.2305 48.5608 30.2092 48.6596 30.908C48.7418 31.4893 48.5852 31.485 54.7193 31.0786C61.5164 30.6283 64.9565 30.4118 69.2952 30.1616C71.6567 30.0254 75.1143 29.8203 76.9786 29.7061C78.843 29.5919 81.9446 29.4684 83.8711 29.4316L87.3738 29.365L87.4909 31.8666C87.6364 34.9798 88.2145 34.6325 82.4022 34.9232C79.6678 35.0599 75.4476 35.2764 73.0239 35.4044C70.6002 35.5322 67.4986 35.6853 66.1314 35.7446C64.7642 35.804 62.4253 35.9502 60.9338 36.0694C59.4423 36.1886 57.1034 36.3505 55.7362 36.4292C54.369 36.5079 52.7419 36.6132 52.1205 36.6634C51.499 36.7134 49.5669 36.8645 47.8268 36.9986C42.5519 37.4057 39.8166 37.6252 37.0926 37.8596C35.6633 37.9829 33.0193 38.1999 31.2171 38.3422C29.4149 38.4846 27.4495 38.6977 26.8497 38.8157C26.2497 38.9338 25.1643 39.0304 24.4376 39.0304C23.7108 39.0304 22.6254 39.1284 22.0254 39.2481C21.4257 39.3679 19.6637 39.584 18.1101 39.7284C14.1007 40.1011 11.7306 40.3433 9.5227 40.6058C8.46623 40.7315 6.23758 40.9863 4.57028 41.1721C1.24675 41.5423 0.381235 41.9121 1.27432 42.5803C1.52335 42.7665 1.92922 42.8575 2.17825 42.7827C2.42683 42.7078 3.4946 42.5532 4.55107 42.439C5.60754 42.3246 7.33631 42.1259 8.39278 41.9974C10.2497 41.7713 15.052 41.251 19.014 40.8464C20.0705 40.7384 21.9518 40.5394 23.1947 40.4043C24.4376 40.269 27.1833 40.007 29.2962 39.8221C31.4091 39.6374 33.6972 39.4339 34.3808 39.37C40.4394 38.8035 44.6791 38.4459 49.4087 38.1023C59.0503 37.4019 72.2872 36.5809 76.4137 36.4271C77.7187 36.3785 80.8215 36.2638 83.3084 36.1722L87.8303 36.0055L88.6875 38.6051C89.4741 40.991 91.7529 45.6364 92.4661 46.3079C92.5326 46.3705 92.8123 46.7168 93.0876 47.0778C97.6452 53.0499 105.068 57.8605 113.023 59.9983C128.67 64.2029 146.641 59.4182 155.613 48.6586C156.326 47.8035 157.102 46.8729 157.338 46.5904C157.574 46.3082 157.768 46.0198 157.768 45.95C157.768 45.8799 158.004 45.4969 158.293 45.0987C159.443 43.5156 161.062 39.8082 161.826 37.0068L162.099 36.0064L166.657 36.1856C169.163 36.2841 172.346 36.3928 173.731 36.4269C175.115 36.4612 178.115 36.6061 180.397 36.7489C182.679 36.892 186.123 37.1055 188.049 37.2235C189.976 37.3416 192.925 37.5388 194.603 37.6618C196.281 37.7851 199.128 37.9834 200.93 38.1025C206.846 38.4944 210.738 38.8201 212.142 39.0407C212.903 39.1601 214.103 39.2578 214.811 39.2578C215.518 39.2578 216.778 39.3556 217.609 39.475C218.441 39.5944 220.393 39.8071 221.947 39.9476C229.283 40.6115 236.578 41.371 241.607 41.9949C242.664 42.1259 244.342 42.3205 245.336 42.4272C246.33 42.5341 247.455 42.6922 247.834 42.7786C248.34 42.8937 248.607 42.8359 248.832 42.5637C249.427 41.8423 248.678 41.5343 245.43 41.165C243.762 40.9753 241.585 40.7249 240.59 40.609C238.749 40.3938 237.34 40.2403 231.325 39.5994C223.919 38.8105 212.41 37.7305 209.292 37.5319C208.484 37.4805 206.704 37.3359 205.337 37.2104C201.897 36.8949 189.769 36.0671 182.061 35.6218C179.948 35.4997 175.575 35.2841 172.343 35.1426C169.112 35.0012 165.565 34.8201 164.461 34.7406L162.454 34.5957L162.497 32.1075C162.52 30.7391 162.584 29.5474 162.638 29.4594C162.77 29.244 176.998 29.8153 182.852 30.271C183.535 30.3242 185.213 30.4257 186.58 30.4962C190.188 30.6824 195.226 31.0395 198.26 31.3238C201.051 31.5853 201.382 31.5332 201.382 30.8341C201.382 30.1796 203.178 30.3584 183.304 29.0348C181.501 28.9147 178.501 28.7516 176.637 28.6725C174.773 28.5933 172.739 28.4921 172.117 28.4473C171.496 28.4025 169.127 28.2931 166.852 28.204C162.232 28.0229 162.423 28.1012 162.158 26.2663C160.5 14.746 148.7 3.86046 134.83 1.05657C134.085 0.905788 133.017 0.687236 132.457 0.570569C129.806 0.0177047 124.707 -0.163551 120.932 0.160753ZM128.713 1.28399C132.975 1.76863 136.628 2.4725 137.079 2.89596C137.197 3.00695 137.502 3.10109 137.757 3.10519C138.176 3.11178 138.931 3.35672 141.271 4.24549C149.246 7.27521 159.801 17.5285 159.801 22.2467C159.801 22.4218 159.882 22.6621 159.981 22.7811C160.199 23.0431 160.559 24.1602 160.965 25.8399C161.375 27.5333 161.376 34.2013 160.966 35.7328C158.876 43.5511 154.832 49.1707 148.05 53.6821C146.027 55.0282 141.391 57.4516 140.84 57.4516C140.702 57.4516 140.157 57.6404 139.63 57.8712C138.38 58.4189 137.324 58.7577 135.948 59.0531C135.333 59.1853 134.423 59.389 133.926 59.5062C111.435 64.8037 87.9691 49.4684 88.6739 29.9335C89.2926 12.7875 108.571 -1.00683 128.713 1.28399ZM121.158 3.33807C106.832 4.66895 94.6062 13.5923 91.8867 24.7028C91.6876 25.5158 91.4298 26.4954 91.3136 26.8795C89.8554 31.7036 92.3798 40.9169 96.5078 45.836C114.1 66.7991 152.903 60.2221 158.546 35.3207C158.942 33.5752 159.033 28.0214 158.684 26.8795C158.567 26.4954 158.301 25.4647 158.093 24.5891C156.848 19.3502 152.154 13.1291 146.737 9.5392C144.221 7.87128 139.785 5.59933 139.045 5.59933C138.899 5.59933 138.602 5.50427 138.386 5.38828C135.493 3.83249 126.876 2.80704 121.158 3.33807ZM131.008 6.01369C131.494 6.139 132.53 6.35733 133.309 6.49878C134.797 6.76896 136.627 7.2843 137.768 7.75484C138.141 7.90858 139.056 8.27609 139.802 8.57129C143.428 10.0075 147.401 12.6733 149.989 15.406C156.835 22.6346 158.438 31.7663 154.317 40.0538C153.122 42.4568 151.181 45.0337 148.954 47.176C148.224 47.8785 144.942 50.4015 144.758 50.4015C144.681 50.4015 144.328 50.6087 143.975 50.8618C142.219 52.1206 137.231 54.154 134.039 54.9125C133.48 55.0455 132.463 55.2875 131.779 55.4501C130.036 55.8651 120.45 55.8547 118.387 55.4353C115.833 54.9163 115.915 54.8395 120.819 53.1681C128.197 50.6535 128.616 50.4502 128.616 49.3781C128.616 48.5958 127.76 48.0129 125.273 47.1023C123.215 46.3486 122.278 45.6336 123.556 45.7926C127.126 46.2365 129.28 46.6475 131.554 47.3175C136.888 48.8903 137.967 49.1023 140.759 49.1266C142.28 49.1398 143.501 49.0604 143.471 48.9504C143.442 48.8401 142.452 48.7259 141.271 48.6968C138.792 48.6352 136.673 48.2153 133.349 47.1269C130.755 46.2772 129.611 46.0175 126.259 45.5165C123.472 45.0999 123.404 45.0335 124.353 43.6562C125.046 42.6501 125.114 42.4013 125.143 40.7609L125.174 38.9663L130.341 38.9804C133.183 38.9883 136.699 39.0693 138.154 39.1605C143.948 39.5237 147.372 36.159 144.624 32.8036C143.935 31.9628 143.921 31.9012 144.217 31.1029C144.61 30.0441 144.564 27.8863 144.111 26.1267C143.916 25.3701 143.757 24.0553 143.757 23.2055C143.757 19.5474 142.585 15.4654 141.275 14.5586C139.226 13.1402 136.619 14.3178 135.056 17.3684C134.266 18.9097 134.122 18.8817 132.73 16.9136C132.088 16.0066 131.423 15.0856 131.251 14.8668C130.889 14.4051 130.134 14.364 128.698 14.7276C127.387 15.0599 127.127 14.8122 126.875 12.9906L126.687 11.626L125.368 11.6328C123.68 11.6415 123.418 11.9631 123.418 14.0258V15.5425L122.245 15.6823C118.904 16.0805 116.057 19.0284 112.975 25.2834C111.8 27.6666 111.778 27.6934 111.105 27.5526C109.357 27.1872 108.842 27.169 108.014 27.4444C105.748 28.1967 104.544 31.1691 104.701 35.6191C104.819 38.9554 105.514 40.3106 108.116 42.281C108.887 42.8639 108.955 43.0083 108.955 44.0435V45.1708H110.072H111.189L111.259 44.222C111.358 42.8668 111.756 42.9112 112.458 44.3553C113.084 45.6423 114.422 47.0325 115.694 47.7186C116.366 48.0812 116.413 48.186 116.413 49.3433C116.413 50.6533 116.58 50.8564 117.658 50.8564C118.438 50.8564 118.898 50.2646 118.898 49.2633C118.898 48.4123 118.946 48.3595 120.424 47.559L121.949 46.733L124.661 47.6656C129.339 49.2747 129.258 49.3995 121.888 51.9075C120.612 52.3419 118.731 53.0069 117.708 53.3851C114.129 54.7082 114.234 54.7123 110.421 53.1147C102.46 49.7795 96.179 43.3501 94.3287 36.6425C94.1906 36.1422 93.942 35.2723 93.7766 34.7094C93.3782 33.3558 93.3759 28.1144 93.7732 26.7496C93.937 26.1867 94.1725 25.368 94.2966 24.9302C94.5348 24.0895 94.573 23.9926 95.4893 21.8932C98.6603 14.63 107.638 8.2206 117.244 6.36211C120.996 5.6364 128.777 5.43922 131.008 6.01369ZM126.093 12.6699C126.621 14.1065 125.561 15.8288 124.605 15.0872C124.263 14.822 124.231 13.2448 124.556 12.6344C124.877 12.0308 125.867 12.0536 126.093 12.6699ZM140.887 15.1568C142.125 16.1367 142.705 17.9327 142.757 20.9503C142.782 22.4513 142.907 24.1399 143.034 24.7028C144.192 29.8323 143.841 31.8723 141.68 32.5625C141.455 32.6344 141.271 32.7777 141.271 32.8809C141.271 33.2721 142.034 33.341 142.556 32.9969C143.266 32.5284 143.878 32.7454 144.311 33.6191C145.385 35.7853 143.861 38.1132 141.313 38.1987L140.254 38.2344L140.288 37.3248C140.421 33.7886 140.682 30.4637 140.843 30.2583C141.523 29.3891 140.526 27.4353 137.034 22.7982C134.976 20.0652 134.966 20.0347 135.647 18.2038C136.678 15.4301 139.304 13.9034 140.887 15.1568ZM129.84 15.2891C130.705 15.6232 129.907 16.5156 128.744 16.5156C127.912 16.5156 128.026 16.9279 128.881 17.013C129.905 17.1146 129.998 17.6527 128.992 17.6527C127.961 17.6527 127.486 17.8476 127.486 18.2708C127.486 18.5413 127.658 18.5804 128.31 18.4576C128.887 18.3486 129.19 18.3921 129.323 18.6027C129.666 19.1464 129.532 19.2447 128.446 19.2481C127.077 19.2526 126.517 19.5713 127.096 20.017C127.474 20.3083 127.469 20.3331 127.015 20.4525C126.134 20.6845 126.666 21.183 127.72 21.1123C129.02 21.0249 129.436 21.1857 129.067 21.6328C128.915 21.8175 128.699 21.9117 128.587 21.8421C128.291 21.6583 125.904 22.1946 125.904 22.4447C125.904 22.561 126.559 22.656 127.359 22.656C129.652 22.656 129.637 23.2198 127.34 23.4122C126.7 23.4659 126.054 23.5862 125.903 23.6799C125.382 24.0039 126.161 24.2118 127.41 24.0822C128.397 23.9796 128.616 24.0203 128.616 24.3055C128.616 24.7679 128.136 24.9302 126.771 24.9302C125.277 24.9302 125.403 25.451 126.938 25.6243C128.165 25.7628 127.941 25.9568 126.299 26.1781C124.697 26.3939 124.913 26.8924 126.551 26.7551C126.91 26.725 127.05 26.8101 126.98 27.0143C126.917 27.1985 126.611 27.2922 126.203 27.252C125.833 27.2156 125.233 27.3102 124.87 27.4621L124.209 27.7382L125 27.8694C126.172 28.0637 126.043 28.6409 124.813 28.7045C123.293 28.7832 123.308 29.4666 124.831 29.4753C125.468 29.4787 125.653 29.7814 125.193 30.0677C125.05 30.1564 124.397 30.2112 123.741 30.1896C123.084 30.1682 122.483 30.2551 122.404 30.3831C122.323 30.5157 122.486 30.6174 122.783 30.6192C124.328 30.6297 123.874 31.5187 122.286 31.5942C121.372 31.6378 121.31 31.5946 120.386 30.2776C118.621 27.763 117.531 27.647 115.212 29.7266C113.754 31.0342 113.605 31.0163 112.83 29.44C112.326 28.4146 112.3 28.5353 113.635 25.6125C116.316 19.7416 119.427 16.7783 123.443 16.2716C125.789 15.9755 129.129 15.3926 129.265 15.2555C129.397 15.1229 129.412 15.1236 129.84 15.2891ZM131.896 16.8947C132.271 17.4696 132.271 17.516 131.9 17.7892C131.419 18.1433 131.633 18.5599 132.301 18.5692C132.785 18.5761 132.786 18.582 132.344 18.8303C132.096 18.97 131.845 19.126 131.786 19.1769C131.578 19.3572 132.354 19.6929 133.022 19.7113C133.675 19.7295 133.681 19.7398 133.192 19.977C132.351 20.3852 132.566 20.8366 133.601 20.8366C134.189 20.8366 134.465 20.923 134.37 21.0775C134.289 21.2101 134.003 21.301 133.735 21.2796C132.802 21.2057 132.457 21.2935 132.457 21.606C132.457 21.7791 132.664 21.9749 132.916 22.0413C133.168 22.1077 133.346 22.2987 133.311 22.4659C133.269 22.6706 133.58 22.8102 134.265 22.8934C135.226 23.0103 133.419 23.2744 130.65 23.422C129.905 23.4615 129.908 23.0399 130.688 17.937C130.961 16.1442 131.247 15.8977 131.896 16.8947ZM129.068 20.1544C129.322 20.3197 129.209 20.3747 128.616 20.3747C128.023 20.3747 127.91 20.3197 128.164 20.1544C128.35 20.0331 128.554 19.934 128.616 19.934C128.678 19.934 128.881 20.0331 129.068 20.1544ZM138.404 26.1438C140.244 28.9215 140.382 29.2444 140.026 29.9369C139.852 30.2763 139.637 32.0429 139.506 34.2186C139.245 38.5499 139.416 38.2369 137.364 38.1528C135.175 38.0627 135.169 38.0546 135.169 35.2397C135.169 31.9937 134.555 31.3269 132.178 31.9915C131.019 32.3153 130.876 32.7113 130.876 35.5888C130.876 38.5033 131.027 38.3484 128.253 38.2772C125.701 38.2117 125.511 37.9279 125.098 33.5723L124.958 32.094L126.105 30.4598C126.735 29.5608 127.441 28.4862 127.673 28.0718C129.919 24.0556 129.793 24.1934 131.141 24.2909L132.118 24.3617L132.188 25.6125C132.272 27.1305 132.398 27.2811 133.313 26.96C134.04 26.705 134.525 25.5379 134.155 24.935C133.829 24.4038 134.446 24.134 135.813 24.2107L137.174 24.2869L138.404 26.1438ZM110.19 28.3206C110.606 28.4846 110.596 28.5196 110.022 28.8981C109.201 29.4396 109.455 29.7402 110.581 29.559C111.312 29.4412 111.48 29.4762 111.397 29.7291C111.34 29.904 110.971 30.0793 110.576 30.1184C109.755 30.2001 109.56 30.8432 110.356 30.8432C110.743 30.8432 110.793 30.9039 110.582 31.1161C110.433 31.2662 110.311 31.5221 110.311 31.6847C110.311 32.0483 111.255 32.0761 111.607 31.7227C111.893 31.4345 112.571 31.6105 112.571 31.9733C112.571 32.1022 112.278 32.2077 111.921 32.2077C110.79 32.2077 110.206 34.1386 111.288 34.3C111.93 34.3958 112.022 34.8866 111.415 34.9762C110.725 35.078 110.631 35.5288 111.262 35.7085L111.78 35.8558L111.134 36.391C110.696 36.7542 110.574 36.9795 110.754 37.0916C110.9 37.1826 110.962 37.4075 110.892 37.5918C110.822 37.7757 110.87 38.1251 111 38.3679C111.181 38.7093 111.155 38.8403 110.886 38.9445C110.466 39.1064 110.426 39.6283 110.82 39.7927C111.016 39.8748 110.948 40.0468 110.599 40.3554C110.1 40.7964 110.1 40.8007 110.561 40.9219C111.178 41.0845 111.069 42.0751 110.424 42.16C109.71 42.2539 107.659 40.9289 106.912 39.8912C103.79 35.5531 106.275 26.7801 110.19 28.3206ZM129.199 28.4139C128.864 28.6604 128.818 28.8906 128.948 29.6688C129.232 31.3595 130.467 31.372 130.715 29.6865C130.897 28.4537 130.078 27.7666 129.199 28.4139ZM132.76 28.284C132.258 28.6152 132.294 30.7211 132.803 30.7877C133.562 30.8867 133.846 30.5075 133.887 29.3409C133.927 28.2008 133.498 27.7983 132.76 28.284ZM136.469 28.267C135.54 28.5206 136.124 31.0352 137.119 31.0634C137.502 31.0743 137.924 29.8639 137.841 28.994C137.766 28.2081 137.398 28.0129 136.469 28.267ZM117.235 29.825C116.797 30.1471 116.747 30.7654 117.147 30.901C117.368 30.9758 117.362 31.0788 117.122 31.3722C116.608 31.9978 117.409 32.1043 118.365 31.5371C118.921 31.2066 119.265 31.1216 119.419 31.2765C119.739 31.5985 119.325 32.0438 118.344 32.4309C117.316 32.8368 117.237 33.4631 118.239 33.2614C118.623 33.1843 119.226 32.9139 119.58 32.6603C120.046 32.3258 120.268 32.2733 120.388 32.4686C120.574 32.7711 119.601 33.6401 118.619 34.0494C118.275 34.1927 117.995 34.4508 117.995 34.6232C117.995 35.1715 118.862 34.9627 119.998 34.1408C121.138 33.3169 121.384 33.2098 121.384 33.5375C121.384 33.9666 120.497 34.7174 119.833 34.8511C119.443 34.9295 119.124 35.1344 119.124 35.3064C119.124 35.7389 120.571 35.7162 120.932 35.278C121.252 34.8904 121.744 34.8308 121.944 35.1556C122.09 35.3933 120.49 36.3014 119.924 36.3014C119.733 36.3014 119.576 36.4549 119.576 36.6425C119.576 36.8613 119.799 36.9861 120.198 36.9909C120.763 36.9975 120.783 37.0255 120.424 37.3002C119.452 38.0427 120.158 38.2895 121.78 37.7744C122.669 37.4919 122.33 38.0352 121.384 38.4091C120.375 38.808 120.188 39.2578 121.032 39.2578C121.335 39.2578 121.646 39.3602 121.723 39.4853C121.8 39.6103 121.755 39.7127 121.624 39.7127C121.276 39.7127 121.33 40.0809 121.739 40.4925C122.062 40.8173 122.052 40.8498 121.626 40.8498C121.369 40.8498 121.158 40.9453 121.158 41.062C121.158 41.3383 121.992 41.6026 122.286 41.4197C122.412 41.3417 122.514 41.3752 122.514 41.4943C122.514 41.8318 121.898 41.9881 121.156 41.8386C120.58 41.7227 120.48 41.772 120.48 42.1725C120.48 42.4308 120.372 42.7099 120.239 42.7924C120.106 42.875 120.051 43.0831 120.117 43.2548C120.182 43.4265 120.105 43.6464 119.945 43.7435C119.786 43.8406 119.59 44.1001 119.509 44.32C119.429 44.5402 119.242 44.6937 119.094 44.6612C118.946 44.6289 118.75 44.8581 118.658 45.1708C118.567 45.4835 118.482 45.65 118.469 45.5411C118.457 45.4319 118.295 45.469 118.11 45.6236C117.925 45.7783 117.825 45.9884 117.888 46.0905C118.063 46.3753 117.673 46.5297 117.325 46.3134C117.12 46.1858 116.886 46.2845 116.626 46.6075C115.927 47.4769 113.817 45.7578 112.635 43.3553C111.273 40.5883 112.449 33.9005 114.779 31.1643C115.556 30.2508 117.409 28.9618 117.509 29.2642C117.562 29.423 117.438 29.6752 117.235 29.825ZM124.04 33.0606C124.531 34.7829 124.828 37.4751 124.558 37.7471C124.238 38.0686 123.967 37.6839 123.619 36.4151C123.482 35.9147 123.177 35.0055 122.942 34.3949C122.441 33.0942 122.421 32.8475 122.785 32.4807C123.306 31.9569 123.79 32.1807 124.04 33.0606ZM112.119 33.1174C112.119 33.2425 112.017 33.3449 111.893 33.3449C111.769 33.3449 111.667 33.2425 111.667 33.1174C111.667 32.9924 111.769 32.89 111.893 32.89C112.017 32.89 112.119 32.9924 112.119 33.1174ZM123.418 38.795C123.418 39.1171 122.546 39.5321 122.253 39.3497C122.094 39.2508 122.2 39.0823 122.54 38.8924C123.191 38.5292 123.418 38.5039 123.418 38.795ZM123.418 40.2546C123.418 40.3026 123.164 40.3909 122.853 40.4507C122.542 40.5105 122.288 40.4711 122.288 40.3633C122.288 40.2558 122.542 40.1675 122.853 40.1675C123.164 40.1675 123.418 40.2069 123.418 40.2546ZM123.357 42.8065C123.282 42.882 123.087 42.8902 122.924 42.8245C122.744 42.752 122.797 42.6981 123.06 42.6871C123.299 42.6774 123.432 42.731 123.357 42.8065ZM121.036 45.8374C121.107 45.9538 121.08 46.1023 120.975 46.1676C120.709 46.3334 119.802 46.0698 119.802 45.8265C119.802 45.5586 120.87 45.5679 121.036 45.8374ZM212.221 56.0302C211.821 56.9997 211.201 58.435 210.844 59.2198C210.488 60.0047 210.196 60.6961 210.196 60.7561C210.196 60.8161 209.941 61.3956 209.631 62.0438C209.32 62.6919 209.066 63.2984 209.066 63.3912C209.066 63.4842 208.771 64.207 208.41 64.9975C208.05 65.788 206.968 68.2769 206.007 70.5284C205.046 72.7799 203.857 75.5431 203.363 76.6688C202.87 77.7946 202.224 79.2974 201.928 80.0083C201.633 80.7195 201.084 81.9755 200.709 82.7999C200.333 83.6243 200.026 84.3566 200.026 84.4269C200.026 84.4974 199.721 85.2183 199.348 86.0291C198.976 86.8398 198.67 87.5446 198.67 87.5953C198.67 87.646 198.365 88.3577 197.992 89.1771C197.62 89.9965 197.315 90.7078 197.315 90.7581C197.315 90.8084 196.978 91.5989 196.567 92.5149C196.156 93.431 195.626 94.6409 195.391 95.2038C192.618 101.828 189.021 106.603 185.45 108.396C182.535 109.86 182.564 109.865 194.32 109.932C206.252 109.999 207.067 109.865 202.774 108.544C197.751 106.998 195.095 102.799 196.608 98.7963C196.717 98.5091 196.987 97.7111 197.209 97.0231C197.431 96.3352 197.851 95.2415 198.142 94.5929C198.432 93.9443 198.67 93.3562 198.67 93.2861C198.67 93.2161 199.023 92.3898 199.455 91.4497L200.239 89.7406L209.907 89.8L219.574 89.8593L220.635 92.361C221.92 95.3905 222.144 95.9174 223.202 98.3877C226.487 106.065 225.655 108.144 218.952 108.998C213.805 109.653 217.743 109.986 230.647 109.986C244.361 109.986 245.612 109.865 242.455 108.837C240.323 108.142 238.372 106.664 237.121 104.794C236.412 103.734 233.246 97.4757 233.246 97.1337C233.246 97.0791 232.93 96.3411 232.543 95.4937C232.157 94.6463 231.659 93.4924 231.438 92.9295C231.216 92.3667 230.782 91.3433 230.474 90.6553C228.969 87.2997 228.048 85.1865 228.048 85.0894C228.048 84.9884 227.816 84.4558 226.38 81.268C226.055 80.5452 225.788 79.9082 225.788 79.8523C225.788 79.7963 225.474 79.057 225.091 78.2096C224.266 76.3882 224.473 76.863 221.043 68.9365C219.906 66.3097 218.831 63.8281 218.653 63.4215C218.114 62.1852 217.74 61.303 216.748 58.9299C214.729 54.101 214.833 54.2677 213.835 54.2677H212.95L212.221 56.0302ZM13.2903 55.5554C12.8519 55.9964 13.1793 56.4903 13.9972 56.622C17.9858 57.2638 20.1509 60.0354 20.5762 65.0444C21.1604 71.9248 20.8279 101.837 20.1489 103.505C20.047 103.755 19.8336 104.306 19.675 104.729C19.0538 106.385 17.3218 107.737 14.6638 108.643C10.9491 109.909 11.6289 109.986 26.4714 109.986C39.9741 109.986 42.9228 109.758 39.183 109.003C34.9309 108.144 32.5239 106.658 31.2916 104.133L30.6521 102.822V91.7924V80.7624L32.9908 80.6974C40.6234 80.485 43.7062 82.6396 45.4504 89.4045L46.0366 91.6787H46.8187H47.6008L47.6596 81.1872L47.7183 70.696L47.1247 70.5819C46.4736 70.4566 45.68 71.0606 45.68 71.6814C45.68 73.2313 43.6204 76.4196 41.8649 77.5869C40.1124 78.7525 32.4527 80.0374 30.8794 79.43C30.2885 79.2016 30.481 62.6114 31.0935 60.9846C32.4652 57.3413 37.0488 55.8738 43.6461 56.9656C49.5479 57.9424 53.8404 61.8347 56.0958 68.2542C56.7875 70.2234 56.7572 70.1873 57.7154 70.1873H58.6229L58.4566 68.6522C58.3651 67.808 58.2121 66.2472 58.1167 65.184C57.6867 60.3922 57.3931 57.4873 57.2435 56.5419L57.0817 55.5185L35.2617 55.4606C23.2609 55.4287 13.3737 55.4712 13.2903 55.5554ZM211.045 70.0888C211.587 71.3312 212.221 72.8211 212.454 73.3996C212.866 74.421 213.284 75.3791 214.402 77.8689C214.699 78.5291 214.941 79.1518 214.941 79.2528C214.941 79.3538 215.278 80.1441 215.689 81.0092C219.552 89.1273 220.139 88.3804 209.91 88.364C199.85 88.3481 200.577 88.5974 201.888 85.6149C202.457 84.322 203.911 80.9103 205.12 78.0334C206.33 75.1565 207.611 72.1604 207.966 71.3756C208.322 70.5907 208.614 69.9128 208.614 69.8693C208.614 67.4439 209.945 67.5642 211.045 70.0888ZM67.0354 76.6229C63.9783 77.1453 62.1797 77.8248 59.9169 79.3126C49.8243 85.9477 49.9013 103.647 60.0462 108.986C61.2502 109.619 62.0556 109.923 64.6625 110.725C68.2792 111.838 75.3197 110.633 79.1236 108.251C83.1857 105.707 84.9192 103.823 84.1285 102.811L83.7077 102.273L82.3771 103.522C80.8341 104.971 78.3533 106.667 77.0091 107.192C76.4952 107.392 75.9712 107.636 75.8444 107.732C75.2885 108.156 72.5848 108.432 71.1638 108.209C65.738 107.359 62.1489 101.987 61.6226 93.9286C61.4375 91.0922 60.2636 91.3512 73.6094 91.2828L85.114 91.2239L85.0476 90.0867C84.5188 81.0362 76.4595 75.0121 67.0354 76.6229ZM107.686 76.6682C105.764 77.2785 104.291 78.6831 102.852 81.2782C102.039 82.7453 101.844 82.409 101.773 79.4102L101.709 76.7305L100.304 76.8596C99.5312 76.9308 98.0854 77.0861 97.0911 77.2051C96.0968 77.3243 93.9612 77.5412 92.3455 77.6877C88.8129 78.0074 86.5488 79.0568 89.3912 79.0568C92.67 79.0568 93.2006 81.3599 93.0853 95.09C92.9843 107.095 92.8786 107.586 90.1532 108.719C87.1582 109.964 87.2916 109.986 97.7745 109.986C106.273 109.986 107.182 109.951 107.059 109.626C106.983 109.429 106.921 109.224 106.921 109.172C106.921 109.119 106.666 109.077 106.353 109.077C106.041 109.077 105.609 108.986 105.393 108.876C105.177 108.765 104.711 108.538 104.357 108.37C101.928 107.222 101.723 106.222 101.725 95.5299L101.727 86.9028L103.194 84.1738C107.195 76.7311 112.213 75.7282 110.103 82.7931C108.848 86.9918 109.93 89.5182 112.982 89.5182C115.633 89.5182 116.865 87.9367 116.865 84.5329C116.865 82.4974 116.774 82.0974 115.89 80.2387C114.423 77.1516 110.939 75.6352 107.686 76.6682ZM141.384 76.6254C137.93 77.1878 135.914 78.2856 133.052 81.1625C131.019 83.2056 130.945 83.1547 130.944 79.7026L130.944 76.8962L129.723 76.9215C129.052 76.9354 127.588 77.0584 126.469 77.1944C123.672 77.5351 119.614 77.9481 118.736 77.9815C117.437 78.0313 117.624 78.8273 119.011 79.1534C122.178 79.8982 122.288 80.396 122.287 93.8813C122.285 107.358 122.29 107.333 119.65 108.602C119.05 108.89 118.413 109.199 118.234 109.288C116.983 109.911 117.872 109.986 126.45 109.986C131.246 109.986 135.245 109.986 135.339 109.986C135.973 109.986 135.358 109.207 134.491 108.913C131.18 107.791 130.816 106.274 130.921 94.0541L130.989 86.1956L132.531 84.3345C137.221 78.6765 141.391 77.3522 144.165 80.6394C145.598 82.3378 145.846 84.7425 145.743 95.9997C145.639 107.458 145.523 107.916 142.486 108.891C139.534 109.837 140.581 109.986 150.199 109.986C159.02 109.986 159.912 109.913 158.658 109.288C158.479 109.199 157.855 108.897 157.271 108.617C154.591 107.331 154.549 107.14 154.43 95.5979L154.333 86.0993L155.638 84.4933C161.146 77.7182 166.467 77.0241 168.545 82.8092C169.148 84.4887 169.172 105.087 168.572 106.364C168.099 107.371 166.855 108.622 166.325 108.622C166.108 108.622 165.867 108.724 165.79 108.849C165.713 108.974 165.402 109.077 165.099 109.077C164.698 109.077 164.547 109.201 164.547 109.531C164.547 109.978 164.698 109.986 173.492 109.986C182.294 109.986 183.191 109.912 181.934 109.289C181.755 109.2 181.045 108.858 180.356 108.53C179.094 107.928 178.556 107.301 178.039 105.826C177.873 105.353 177.734 101.655 177.644 95.3175C177.473 83.3771 177.259 82.3196 174.442 79.4845C171.808 76.8342 165.564 75.5319 162.686 77.0327C162.47 77.1453 162.193 77.2374 162.07 77.2374C161.827 77.2374 159.374 78.3679 159.01 78.6481C157.625 79.7142 154.686 82.6139 154.307 83.2884C154.039 83.7658 153.767 83.4997 153.037 82.0444C150.959 77.9006 146.444 75.8012 141.384 76.6254ZM70.5715 77.7905C74.3746 78.9521 75.9346 81.4909 76.3962 87.2701C76.6548 90.5072 77.4421 90.2075 68.8507 90.142L61.6267 90.0867L61.6861 88.9496C61.9996 82.9339 64.3543 78.8316 68.0706 77.826C69.6016 77.4118 69.3436 77.4155 70.5715 77.7905ZM0.0720886 127.327L0.144405 127.839L28.6183 127.893C56.7981 127.946 192.523 128.251 192.24 127.511C192.114 127.18 54.8501 126.815 28.7227 126.815H0L0.0720886 127.327ZM192.416 127.18C192.134 127.92 193.202 127.946 221.382 127.893L249.856 127.839L249.928 127.327L250 126.815H221.277C195.15 126.815 192.542 126.848 192.416 127.18Z" fill="white"/>
</svg>
