<svg width="41" height="41" viewBox="0 0 41 41" fill="none" xmlns="http://www.w3.org/2000/svg">
<path d="M26.8956 23.1125C26.3966 22.573 25.8362 22.0936 25.2258 21.6842C27.6888 19.7799 29.4148 17.0801 30.1095 14.0454C30.1608 13.8261 30.1682 13.5988 30.1313 13.3766C30.0944 13.1544 30.014 12.9417 29.8946 12.7507C29.7752 12.5598 29.6192 12.3943 29.4356 12.2638C29.252 12.1334 29.0444 12.0405 28.8248 11.9906C28.6052 11.9406 28.3778 11.9346 28.1559 11.9729C27.9339 12.0112 27.7217 12.0929 27.5315 12.2135C27.3413 12.3341 27.1768 12.4911 27.0474 12.6755C26.9181 12.8599 26.8265 13.068 26.7779 13.288C26.4544 14.7075 25.8251 16.0394 24.9339 17.1908C24.0427 18.3421 22.9111 19.2853 21.6179 19.9544V13.6701C21.6074 13.5444 21.5823 13.4203 21.5433 13.3003C21.532 13.2016 21.5122 13.1039 21.4844 13.0085C21.4115 12.8531 21.3154 12.7098 21.1994 12.5833C21.1688 12.547 21.1534 12.4992 21.12 12.4656C20.9949 12.3501 20.8532 12.2539 20.6996 12.1802C20.656 12.1569 20.6236 12.1176 20.5778 12.0982C20.447 12.0546 20.3114 12.0267 20.1739 12.0151C20.0891 11.9903 20.0023 11.9724 19.9146 11.9618L18.7968 11.9583H18.7918C18.3922 11.9564 18.0046 12.0954 17.6972 12.3507C17.3898 12.6061 17.1822 12.9616 17.1108 13.3549C17.0395 13.7481 17.1089 14.1539 17.3069 14.501C17.5049 14.8481 17.8189 15.1144 18.1937 15.2531V23.608C15.4866 20.7978 13.694 17.2336 13.0521 13.3848C13.0146 13.1636 12.9339 12.952 12.8147 12.762C12.6954 12.572 12.5399 12.4074 12.3571 12.2775C12.1742 12.1476 11.9675 12.055 11.7488 12.005C11.5302 11.9549 11.3038 11.9485 11.0826 11.9859C10.8615 12.0234 10.6498 12.1041 10.4599 12.2233C10.2699 12.3426 10.1052 12.4981 9.97532 12.6809C9.84543 12.8638 9.75283 13.0705 9.7028 13.2892C9.65278 13.5078 9.64632 13.7342 9.68378 13.9554C10.6821 19.9047 13.9997 25.2151 18.9086 28.7214C18.9786 28.7634 19.0516 28.8002 19.127 28.8315C19.1861 28.8663 19.2474 28.8972 19.3106 28.9241C19.5013 29.0003 19.7042 29.0413 19.9096 29.0451C20.1609 29.042 20.4083 28.9825 20.6336 28.8711C20.6506 28.863 20.6701 28.8668 20.687 28.8582C20.838 28.7796 20.9763 28.6786 21.0972 28.5588C21.1215 28.5351 21.1378 28.506 21.1607 28.481C21.2709 28.3599 21.363 28.2234 21.4339 28.0758C21.4577 28.0268 21.4793 27.98 21.4984 27.9285C21.5735 27.74 21.614 27.5396 21.6179 27.3367L21.6188 23.7048C22.6772 24.0156 23.6309 24.6091 24.3773 25.4215L27.1925 28.4911C27.344 28.657 27.5267 28.7914 27.7301 28.8866C27.9336 28.9818 28.1538 29.0359 28.3782 29.0458C28.6026 29.0558 28.8268 29.0214 29.0378 28.9446C29.2489 28.8678 29.4428 28.7501 29.6083 28.5983C29.7739 28.4464 29.9078 28.2635 30.0025 28.0598C30.0973 27.8561 30.1509 27.6358 30.1603 27.4113C30.1698 27.1869 30.1348 26.9628 30.0576 26.7519C29.9803 26.541 29.8622 26.3474 29.71 26.1822L26.8956 23.1125ZM25.7494 1.70833H15.2684C4.74979 1.70833 1.7085 4.74629 1.7085 15.2499V25.7318C1.7085 36.2504 4.74562 39.2917 15.2509 39.2917H25.7319C36.2505 39.2917 39.2918 36.2537 39.2918 25.7501V15.2682C39.2918 4.74962 36.2547 1.70833 25.7494 1.70833ZM35.8752 25.7501C35.8752 34.3602 34.3587 35.875 25.7319 35.875H15.2509C6.63914 35.875 5.12516 34.3585 5.12516 25.7318V15.2499C5.12516 6.63981 6.64165 5.12499 15.2684 5.12499H25.7494C34.3612 5.12499 35.8752 6.64148 35.8752 15.2682V25.7501Z" fill="black"/>
</svg>
